<mxfile host="app.diagrams.net" modified="2022-09-01T08:10:48.557Z" agent="5.0 (Windows)" etag="BlCfW8x5dE9n9Fqy9rs8" version="20.2.7" type="github">
  <diagram id="WNJaf0Pe36c9Ho2RV8W4" name="Seite-1">
    <mxGraphModel dx="1385" dy="650" grid="0" gridSize="10" guides="1" tooltips="1" connect="1" arrows="1" fold="1" page="1" pageScale="1" pageWidth="827" pageHeight="1169" math="0" shadow="0">
      <root>
        <mxCell id="0" />
        <mxCell id="1" parent="0" />
        <mxCell id="cShWyZy-k5d9fnmGeDRB-5" value="Spieler" style="shape=table;startSize=30;container=1;collapsible=1;childLayout=tableLayout;fixedRows=1;rowLines=0;fontStyle=1;align=center;resizeLast=1;" parent="1" vertex="1">
          <mxGeometry x="86" y="43" width="180" height="210" as="geometry" />
        </mxCell>
        <mxCell id="cShWyZy-k5d9fnmGeDRB-6" value="" style="shape=tableRow;horizontal=0;startSize=0;swimlaneHead=0;swimlaneBody=0;fillColor=none;collapsible=0;dropTarget=0;points=[[0,0.5],[1,0.5]];portConstraint=eastwest;top=0;left=0;right=0;bottom=1;" parent="cShWyZy-k5d9fnmGeDRB-5" vertex="1">
          <mxGeometry y="30" width="180" height="30" as="geometry" />
        </mxCell>
        <mxCell id="cShWyZy-k5d9fnmGeDRB-7" value="PK" style="shape=partialRectangle;connectable=0;fillColor=none;top=0;left=0;bottom=0;right=0;fontStyle=1;overflow=hidden;" parent="cShWyZy-k5d9fnmGeDRB-6" vertex="1">
          <mxGeometry width="30" height="30" as="geometry">
            <mxRectangle width="30" height="30" as="alternateBounds" />
          </mxGeometry>
        </mxCell>
        <mxCell id="cShWyZy-k5d9fnmGeDRB-8" value="idSpieler  number" style="shape=partialRectangle;connectable=0;fillColor=none;top=0;left=0;bottom=0;right=0;align=left;spacingLeft=6;fontStyle=5;overflow=hidden;" parent="cShWyZy-k5d9fnmGeDRB-6" vertex="1">
          <mxGeometry x="30" width="150" height="30" as="geometry">
            <mxRectangle width="150" height="30" as="alternateBounds" />
          </mxGeometry>
        </mxCell>
        <mxCell id="cShWyZy-k5d9fnmGeDRB-222" value="" style="shape=tableRow;horizontal=0;startSize=0;swimlaneHead=0;swimlaneBody=0;fillColor=none;collapsible=0;dropTarget=0;points=[[0,0.5],[1,0.5]];portConstraint=eastwest;top=0;left=0;right=0;bottom=0;" parent="cShWyZy-k5d9fnmGeDRB-5" vertex="1">
          <mxGeometry y="60" width="180" height="30" as="geometry" />
        </mxCell>
        <mxCell id="cShWyZy-k5d9fnmGeDRB-223" value="" style="shape=partialRectangle;connectable=0;fillColor=none;top=0;left=0;bottom=0;right=0;editable=1;overflow=hidden;" parent="cShWyZy-k5d9fnmGeDRB-222" vertex="1">
          <mxGeometry width="30" height="30" as="geometry">
            <mxRectangle width="30" height="30" as="alternateBounds" />
          </mxGeometry>
        </mxCell>
        <mxCell id="cShWyZy-k5d9fnmGeDRB-224" value="name varchar" style="shape=partialRectangle;connectable=0;fillColor=none;top=0;left=0;bottom=0;right=0;align=left;spacingLeft=6;overflow=hidden;" parent="cShWyZy-k5d9fnmGeDRB-222" vertex="1">
          <mxGeometry x="30" width="150" height="30" as="geometry">
            <mxRectangle width="150" height="30" as="alternateBounds" />
          </mxGeometry>
        </mxCell>
        <mxCell id="cShWyZy-k5d9fnmGeDRB-15" value="" style="shape=tableRow;horizontal=0;startSize=0;swimlaneHead=0;swimlaneBody=0;fillColor=none;collapsible=0;dropTarget=0;points=[[0,0.5],[1,0.5]];portConstraint=eastwest;top=0;left=0;right=0;bottom=0;" parent="cShWyZy-k5d9fnmGeDRB-5" vertex="1">
          <mxGeometry y="90" width="180" height="30" as="geometry" />
        </mxCell>
        <mxCell id="cShWyZy-k5d9fnmGeDRB-16" value="" style="shape=partialRectangle;connectable=0;fillColor=none;top=0;left=0;bottom=0;right=0;editable=1;overflow=hidden;" parent="cShWyZy-k5d9fnmGeDRB-15" vertex="1">
          <mxGeometry width="30" height="30" as="geometry">
            <mxRectangle width="30" height="30" as="alternateBounds" />
          </mxGeometry>
        </mxCell>
        <mxCell id="cShWyZy-k5d9fnmGeDRB-17" value="Rueckennummer int" style="shape=partialRectangle;connectable=0;fillColor=none;top=0;left=0;bottom=0;right=0;align=left;spacingLeft=6;overflow=hidden;" parent="cShWyZy-k5d9fnmGeDRB-15" vertex="1">
          <mxGeometry x="30" width="150" height="30" as="geometry">
            <mxRectangle width="150" height="30" as="alternateBounds" />
          </mxGeometry>
        </mxCell>
        <mxCell id="cShWyZy-k5d9fnmGeDRB-178" value="" style="shape=tableRow;horizontal=0;startSize=0;swimlaneHead=0;swimlaneBody=0;fillColor=none;collapsible=0;dropTarget=0;points=[[0,0.5],[1,0.5]];portConstraint=eastwest;top=0;left=0;right=0;bottom=0;" parent="cShWyZy-k5d9fnmGeDRB-5" vertex="1">
          <mxGeometry y="120" width="180" height="30" as="geometry" />
        </mxCell>
        <mxCell id="cShWyZy-k5d9fnmGeDRB-179" value="" style="shape=partialRectangle;connectable=0;fillColor=none;top=0;left=0;bottom=0;right=0;editable=1;overflow=hidden;" parent="cShWyZy-k5d9fnmGeDRB-178" vertex="1">
          <mxGeometry width="30" height="30" as="geometry">
            <mxRectangle width="30" height="30" as="alternateBounds" />
          </mxGeometry>
        </mxCell>
        <mxCell id="cShWyZy-k5d9fnmGeDRB-180" value="Position varchar" style="shape=partialRectangle;connectable=0;fillColor=none;top=0;left=0;bottom=0;right=0;align=left;spacingLeft=6;overflow=hidden;" parent="cShWyZy-k5d9fnmGeDRB-178" vertex="1">
          <mxGeometry x="30" width="150" height="30" as="geometry">
            <mxRectangle width="150" height="30" as="alternateBounds" />
          </mxGeometry>
        </mxCell>
        <mxCell id="cShWyZy-k5d9fnmGeDRB-18" value="" style="shape=tableRow;horizontal=0;startSize=0;swimlaneHead=0;swimlaneBody=0;fillColor=none;collapsible=0;dropTarget=0;points=[[0,0.5],[1,0.5]];portConstraint=eastwest;top=0;left=0;right=0;bottom=0;" parent="cShWyZy-k5d9fnmGeDRB-5" vertex="1">
          <mxGeometry y="150" width="180" height="30" as="geometry" />
        </mxCell>
        <mxCell id="cShWyZy-k5d9fnmGeDRB-19" value="" style="shape=partialRectangle;connectable=0;fillColor=none;top=0;left=0;bottom=0;right=0;editable=1;overflow=hidden;" parent="cShWyZy-k5d9fnmGeDRB-18" vertex="1">
          <mxGeometry width="30" height="30" as="geometry">
            <mxRectangle width="30" height="30" as="alternateBounds" />
          </mxGeometry>
        </mxCell>
        <mxCell id="cShWyZy-k5d9fnmGeDRB-20" value="elfmeterGehalten int" style="shape=partialRectangle;connectable=0;fillColor=none;top=0;left=0;bottom=0;right=0;align=left;spacingLeft=6;overflow=hidden;" parent="cShWyZy-k5d9fnmGeDRB-18" vertex="1">
          <mxGeometry x="30" width="150" height="30" as="geometry">
            <mxRectangle width="150" height="30" as="alternateBounds" />
          </mxGeometry>
        </mxCell>
        <mxCell id="cShWyZy-k5d9fnmGeDRB-21" value="" style="shape=tableRow;horizontal=0;startSize=0;swimlaneHead=0;swimlaneBody=0;fillColor=none;collapsible=0;dropTarget=0;points=[[0,0.5],[1,0.5]];portConstraint=eastwest;top=0;left=0;right=0;bottom=0;" parent="cShWyZy-k5d9fnmGeDRB-5" vertex="1">
          <mxGeometry y="180" width="180" height="30" as="geometry" />
        </mxCell>
        <mxCell id="cShWyZy-k5d9fnmGeDRB-22" value="" style="shape=partialRectangle;connectable=0;fillColor=none;top=0;left=0;bottom=0;right=0;editable=1;overflow=hidden;" parent="cShWyZy-k5d9fnmGeDRB-21" vertex="1">
          <mxGeometry width="30" height="30" as="geometry">
            <mxRectangle width="30" height="30" as="alternateBounds" />
          </mxGeometry>
        </mxCell>
        <mxCell id="cShWyZy-k5d9fnmGeDRB-23" value="treffer int" style="shape=partialRectangle;connectable=0;fillColor=none;top=0;left=0;bottom=0;right=0;align=left;spacingLeft=6;overflow=hidden;" parent="cShWyZy-k5d9fnmGeDRB-21" vertex="1">
          <mxGeometry x="30" width="150" height="30" as="geometry">
            <mxRectangle width="150" height="30" as="alternateBounds" />
          </mxGeometry>
        </mxCell>
        <mxCell id="cShWyZy-k5d9fnmGeDRB-43" value="Mannschaft" style="shape=table;startSize=30;container=1;collapsible=1;childLayout=tableLayout;fixedRows=1;rowLines=0;fontStyle=1;align=center;resizeLast=1;" parent="1" vertex="1">
          <mxGeometry x="637" y="97" width="176" height="90" as="geometry" />
        </mxCell>
        <mxCell id="cShWyZy-k5d9fnmGeDRB-44" value="" style="shape=tableRow;horizontal=0;startSize=0;swimlaneHead=0;swimlaneBody=0;fillColor=none;collapsible=0;dropTarget=0;points=[[0,0.5],[1,0.5]];portConstraint=eastwest;top=0;left=0;right=0;bottom=1;" parent="cShWyZy-k5d9fnmGeDRB-43" vertex="1">
          <mxGeometry y="30" width="176" height="30" as="geometry" />
        </mxCell>
        <mxCell id="cShWyZy-k5d9fnmGeDRB-45" value="PK" style="shape=partialRectangle;connectable=0;fillColor=none;top=0;left=0;bottom=0;right=0;fontStyle=1;overflow=hidden;" parent="cShWyZy-k5d9fnmGeDRB-44" vertex="1">
          <mxGeometry width="30" height="30" as="geometry">
            <mxRectangle width="30" height="30" as="alternateBounds" />
          </mxGeometry>
        </mxCell>
        <mxCell id="cShWyZy-k5d9fnmGeDRB-46" value="idMannschaft  number" style="shape=partialRectangle;connectable=0;fillColor=none;top=0;left=0;bottom=0;right=0;align=left;spacingLeft=6;fontStyle=5;overflow=hidden;" parent="cShWyZy-k5d9fnmGeDRB-44" vertex="1">
          <mxGeometry x="30" width="146" height="30" as="geometry">
            <mxRectangle width="146" height="30" as="alternateBounds" />
          </mxGeometry>
        </mxCell>
        <mxCell id="cShWyZy-k5d9fnmGeDRB-47" value="" style="shape=tableRow;horizontal=0;startSize=0;swimlaneHead=0;swimlaneBody=0;fillColor=none;collapsible=0;dropTarget=0;points=[[0,0.5],[1,0.5]];portConstraint=eastwest;top=0;left=0;right=0;bottom=0;" parent="cShWyZy-k5d9fnmGeDRB-43" vertex="1">
          <mxGeometry y="60" width="176" height="30" as="geometry" />
        </mxCell>
        <mxCell id="cShWyZy-k5d9fnmGeDRB-48" value="" style="shape=partialRectangle;connectable=0;fillColor=none;top=0;left=0;bottom=0;right=0;editable=1;overflow=hidden;" parent="cShWyZy-k5d9fnmGeDRB-47" vertex="1">
          <mxGeometry width="30" height="30" as="geometry">
            <mxRectangle width="30" height="30" as="alternateBounds" />
          </mxGeometry>
        </mxCell>
        <mxCell id="cShWyZy-k5d9fnmGeDRB-49" value="Name varchar" style="shape=partialRectangle;connectable=0;fillColor=none;top=0;left=0;bottom=0;right=0;align=left;spacingLeft=6;overflow=hidden;" parent="cShWyZy-k5d9fnmGeDRB-47" vertex="1">
          <mxGeometry x="30" width="146" height="30" as="geometry">
            <mxRectangle width="146" height="30" as="alternateBounds" />
          </mxGeometry>
        </mxCell>
        <mxCell id="cShWyZy-k5d9fnmGeDRB-62" value="Schiri" style="shape=table;startSize=30;container=1;collapsible=1;childLayout=tableLayout;fixedRows=1;rowLines=0;fontStyle=1;align=center;resizeLast=1;" parent="1" vertex="1">
          <mxGeometry x="409" y="576" width="176" height="90" as="geometry" />
        </mxCell>
        <mxCell id="cShWyZy-k5d9fnmGeDRB-63" value="" style="shape=tableRow;horizontal=0;startSize=0;swimlaneHead=0;swimlaneBody=0;fillColor=none;collapsible=0;dropTarget=0;points=[[0,0.5],[1,0.5]];portConstraint=eastwest;top=0;left=0;right=0;bottom=1;" parent="cShWyZy-k5d9fnmGeDRB-62" vertex="1">
          <mxGeometry y="30" width="176" height="30" as="geometry" />
        </mxCell>
        <mxCell id="cShWyZy-k5d9fnmGeDRB-64" value="PK" style="shape=partialRectangle;connectable=0;fillColor=none;top=0;left=0;bottom=0;right=0;fontStyle=1;overflow=hidden;" parent="cShWyZy-k5d9fnmGeDRB-63" vertex="1">
          <mxGeometry width="30" height="30" as="geometry">
            <mxRectangle width="30" height="30" as="alternateBounds" />
          </mxGeometry>
        </mxCell>
        <mxCell id="cShWyZy-k5d9fnmGeDRB-65" value="idSchiri  number" style="shape=partialRectangle;connectable=0;fillColor=none;top=0;left=0;bottom=0;right=0;align=left;spacingLeft=6;fontStyle=5;overflow=hidden;" parent="cShWyZy-k5d9fnmGeDRB-63" vertex="1">
          <mxGeometry x="30" width="146" height="30" as="geometry">
            <mxRectangle width="146" height="30" as="alternateBounds" />
          </mxGeometry>
        </mxCell>
        <mxCell id="cShWyZy-k5d9fnmGeDRB-66" value="" style="shape=tableRow;horizontal=0;startSize=0;swimlaneHead=0;swimlaneBody=0;fillColor=none;collapsible=0;dropTarget=0;points=[[0,0.5],[1,0.5]];portConstraint=eastwest;top=0;left=0;right=0;bottom=0;" parent="cShWyZy-k5d9fnmGeDRB-62" vertex="1">
          <mxGeometry y="60" width="176" height="30" as="geometry" />
        </mxCell>
        <mxCell id="cShWyZy-k5d9fnmGeDRB-67" value="" style="shape=partialRectangle;connectable=0;fillColor=none;top=0;left=0;bottom=0;right=0;editable=1;overflow=hidden;" parent="cShWyZy-k5d9fnmGeDRB-66" vertex="1">
          <mxGeometry width="30" height="30" as="geometry">
            <mxRectangle width="30" height="30" as="alternateBounds" />
          </mxGeometry>
        </mxCell>
        <mxCell id="cShWyZy-k5d9fnmGeDRB-68" value="Name varchar" style="shape=partialRectangle;connectable=0;fillColor=none;top=0;left=0;bottom=0;right=0;align=left;spacingLeft=6;overflow=hidden;" parent="cShWyZy-k5d9fnmGeDRB-66" vertex="1">
          <mxGeometry x="30" width="146" height="30" as="geometry">
            <mxRectangle width="146" height="30" as="alternateBounds" />
          </mxGeometry>
        </mxCell>
        <mxCell id="cShWyZy-k5d9fnmGeDRB-81" value="Spiel" style="shape=table;startSize=30;container=1;collapsible=1;childLayout=tableLayout;fixedRows=1;rowLines=0;fontStyle=1;align=center;resizeLast=1;" parent="1" vertex="1">
          <mxGeometry x="337" y="293" width="242.5" height="180" as="geometry" />
        </mxCell>
        <mxCell id="cShWyZy-k5d9fnmGeDRB-82" value="" style="shape=tableRow;horizontal=0;startSize=0;swimlaneHead=0;swimlaneBody=0;fillColor=none;collapsible=0;dropTarget=0;points=[[0,0.5],[1,0.5]];portConstraint=eastwest;top=0;left=0;right=0;bottom=1;" parent="cShWyZy-k5d9fnmGeDRB-81" vertex="1">
          <mxGeometry y="30" width="242.5" height="30" as="geometry" />
        </mxCell>
        <mxCell id="cShWyZy-k5d9fnmGeDRB-83" value="PK" style="shape=partialRectangle;connectable=0;fillColor=none;top=0;left=0;bottom=0;right=0;fontStyle=1;overflow=hidden;" parent="cShWyZy-k5d9fnmGeDRB-82" vertex="1">
          <mxGeometry width="30" height="30" as="geometry">
            <mxRectangle width="30" height="30" as="alternateBounds" />
          </mxGeometry>
        </mxCell>
        <mxCell id="cShWyZy-k5d9fnmGeDRB-84" value="idSpiel  number" style="shape=partialRectangle;connectable=0;fillColor=none;top=0;left=0;bottom=0;right=0;align=left;spacingLeft=6;fontStyle=5;overflow=hidden;" parent="cShWyZy-k5d9fnmGeDRB-82" vertex="1">
          <mxGeometry x="30" width="212.5" height="30" as="geometry">
            <mxRectangle width="212.5" height="30" as="alternateBounds" />
          </mxGeometry>
        </mxCell>
        <mxCell id="cShWyZy-k5d9fnmGeDRB-85" value="" style="shape=tableRow;horizontal=0;startSize=0;swimlaneHead=0;swimlaneBody=0;fillColor=none;collapsible=0;dropTarget=0;points=[[0,0.5],[1,0.5]];portConstraint=eastwest;top=0;left=0;right=0;bottom=0;" parent="cShWyZy-k5d9fnmGeDRB-81" vertex="1">
          <mxGeometry y="60" width="242.5" height="30" as="geometry" />
        </mxCell>
        <mxCell id="cShWyZy-k5d9fnmGeDRB-86" value="Fk" style="shape=partialRectangle;connectable=0;fillColor=none;top=0;left=0;bottom=0;right=0;editable=1;overflow=hidden;" parent="cShWyZy-k5d9fnmGeDRB-85" vertex="1">
          <mxGeometry width="30" height="30" as="geometry">
            <mxRectangle width="30" height="30" as="alternateBounds" />
          </mxGeometry>
        </mxCell>
        <mxCell id="cShWyZy-k5d9fnmGeDRB-87" value="heimMannschaft number" style="shape=partialRectangle;connectable=0;fillColor=none;top=0;left=0;bottom=0;right=0;align=left;spacingLeft=6;overflow=hidden;" parent="cShWyZy-k5d9fnmGeDRB-85" vertex="1">
          <mxGeometry x="30" width="212.5" height="30" as="geometry">
            <mxRectangle width="212.5" height="30" as="alternateBounds" />
          </mxGeometry>
        </mxCell>
        <mxCell id="cShWyZy-k5d9fnmGeDRB-88" value="" style="shape=tableRow;horizontal=0;startSize=0;swimlaneHead=0;swimlaneBody=0;fillColor=none;collapsible=0;dropTarget=0;points=[[0,0.5],[1,0.5]];portConstraint=eastwest;top=0;left=0;right=0;bottom=0;" parent="cShWyZy-k5d9fnmGeDRB-81" vertex="1">
          <mxGeometry y="90" width="242.5" height="30" as="geometry" />
        </mxCell>
        <mxCell id="cShWyZy-k5d9fnmGeDRB-89" value="FK" style="shape=partialRectangle;connectable=0;fillColor=none;top=0;left=0;bottom=0;right=0;editable=1;overflow=hidden;" parent="cShWyZy-k5d9fnmGeDRB-88" vertex="1">
          <mxGeometry width="30" height="30" as="geometry">
            <mxRectangle width="30" height="30" as="alternateBounds" />
          </mxGeometry>
        </mxCell>
        <mxCell id="cShWyZy-k5d9fnmGeDRB-90" value="auswaertsMannschaft Mannschaft" style="shape=partialRectangle;connectable=0;fillColor=none;top=0;left=0;bottom=0;right=0;align=left;spacingLeft=6;overflow=hidden;" parent="cShWyZy-k5d9fnmGeDRB-88" vertex="1">
          <mxGeometry x="30" width="212.5" height="30" as="geometry">
            <mxRectangle width="212.5" height="30" as="alternateBounds" />
          </mxGeometry>
        </mxCell>
        <mxCell id="cShWyZy-k5d9fnmGeDRB-91" value="" style="shape=tableRow;horizontal=0;startSize=0;swimlaneHead=0;swimlaneBody=0;fillColor=none;collapsible=0;dropTarget=0;points=[[0,0.5],[1,0.5]];portConstraint=eastwest;top=0;left=0;right=0;bottom=0;" parent="cShWyZy-k5d9fnmGeDRB-81" vertex="1">
          <mxGeometry y="120" width="242.5" height="30" as="geometry" />
        </mxCell>
        <mxCell id="cShWyZy-k5d9fnmGeDRB-92" value="" style="shape=partialRectangle;connectable=0;fillColor=none;top=0;left=0;bottom=0;right=0;editable=1;overflow=hidden;" parent="cShWyZy-k5d9fnmGeDRB-91" vertex="1">
          <mxGeometry width="30" height="30" as="geometry">
            <mxRectangle width="30" height="30" as="alternateBounds" />
          </mxGeometry>
        </mxCell>
        <mxCell id="cShWyZy-k5d9fnmGeDRB-93" value="Datum date" style="shape=partialRectangle;connectable=0;fillColor=none;top=0;left=0;bottom=0;right=0;align=left;spacingLeft=6;overflow=hidden;" parent="cShWyZy-k5d9fnmGeDRB-91" vertex="1">
          <mxGeometry x="30" width="212.5" height="30" as="geometry">
            <mxRectangle width="212.5" height="30" as="alternateBounds" />
          </mxGeometry>
        </mxCell>
        <mxCell id="cShWyZy-k5d9fnmGeDRB-184" value="" style="shape=tableRow;horizontal=0;startSize=0;swimlaneHead=0;swimlaneBody=0;fillColor=none;collapsible=0;dropTarget=0;points=[[0,0.5],[1,0.5]];portConstraint=eastwest;top=0;left=0;right=0;bottom=0;" parent="cShWyZy-k5d9fnmGeDRB-81" vertex="1">
          <mxGeometry y="150" width="242.5" height="30" as="geometry" />
        </mxCell>
        <mxCell id="cShWyZy-k5d9fnmGeDRB-185" value="FK" style="shape=partialRectangle;connectable=0;fillColor=none;top=0;left=0;bottom=0;right=0;editable=1;overflow=hidden;" parent="cShWyZy-k5d9fnmGeDRB-184" vertex="1">
          <mxGeometry width="30" height="30" as="geometry">
            <mxRectangle width="30" height="30" as="alternateBounds" />
          </mxGeometry>
        </mxCell>
        <mxCell id="cShWyZy-k5d9fnmGeDRB-186" value="idSchiri" style="shape=partialRectangle;connectable=0;fillColor=none;top=0;left=0;bottom=0;right=0;align=left;spacingLeft=6;overflow=hidden;" parent="cShWyZy-k5d9fnmGeDRB-184" vertex="1">
          <mxGeometry x="30" width="212.5" height="30" as="geometry">
            <mxRectangle width="212.5" height="30" as="alternateBounds" />
          </mxGeometry>
        </mxCell>
        <mxCell id="cShWyZy-k5d9fnmGeDRB-94" value="Treffer" style="shape=table;startSize=30;container=1;collapsible=1;childLayout=tableLayout;fixedRows=1;rowLines=0;fontStyle=1;align=center;resizeLast=1;" parent="1" vertex="1">
          <mxGeometry x="76" y="281" width="176" height="180" as="geometry" />
        </mxCell>
        <mxCell id="cShWyZy-k5d9fnmGeDRB-95" value="" style="shape=tableRow;horizontal=0;startSize=0;swimlaneHead=0;swimlaneBody=0;fillColor=none;collapsible=0;dropTarget=0;points=[[0,0.5],[1,0.5]];portConstraint=eastwest;top=0;left=0;right=0;bottom=1;" parent="cShWyZy-k5d9fnmGeDRB-94" vertex="1">
          <mxGeometry y="30" width="176" height="30" as="geometry" />
        </mxCell>
        <mxCell id="cShWyZy-k5d9fnmGeDRB-96" value="PK" style="shape=partialRectangle;connectable=0;fillColor=none;top=0;left=0;bottom=0;right=0;fontStyle=1;overflow=hidden;" parent="cShWyZy-k5d9fnmGeDRB-95" vertex="1">
          <mxGeometry width="30" height="30" as="geometry">
            <mxRectangle width="30" height="30" as="alternateBounds" />
          </mxGeometry>
        </mxCell>
        <mxCell id="cShWyZy-k5d9fnmGeDRB-97" value="idTor  number" style="shape=partialRectangle;connectable=0;fillColor=none;top=0;left=0;bottom=0;right=0;align=left;spacingLeft=6;fontStyle=5;overflow=hidden;" parent="cShWyZy-k5d9fnmGeDRB-95" vertex="1">
          <mxGeometry x="30" width="146" height="30" as="geometry">
            <mxRectangle width="146" height="30" as="alternateBounds" />
          </mxGeometry>
        </mxCell>
        <mxCell id="cShWyZy-k5d9fnmGeDRB-98" value="" style="shape=tableRow;horizontal=0;startSize=0;swimlaneHead=0;swimlaneBody=0;fillColor=none;collapsible=0;dropTarget=0;points=[[0,0.5],[1,0.5]];portConstraint=eastwest;top=0;left=0;right=0;bottom=0;" parent="cShWyZy-k5d9fnmGeDRB-94" vertex="1">
          <mxGeometry y="60" width="176" height="30" as="geometry" />
        </mxCell>
        <mxCell id="cShWyZy-k5d9fnmGeDRB-99" value="" style="shape=partialRectangle;connectable=0;fillColor=none;top=0;left=0;bottom=0;right=0;editable=1;overflow=hidden;" parent="cShWyZy-k5d9fnmGeDRB-98" vertex="1">
          <mxGeometry width="30" height="30" as="geometry">
            <mxRectangle width="30" height="30" as="alternateBounds" />
          </mxGeometry>
        </mxCell>
        <mxCell id="cShWyZy-k5d9fnmGeDRB-100" value="minute int" style="shape=partialRectangle;connectable=0;fillColor=none;top=0;left=0;bottom=0;right=0;align=left;spacingLeft=6;overflow=hidden;" parent="cShWyZy-k5d9fnmGeDRB-98" vertex="1">
          <mxGeometry x="30" width="146" height="30" as="geometry">
            <mxRectangle width="146" height="30" as="alternateBounds" />
          </mxGeometry>
        </mxCell>
        <mxCell id="cShWyZy-k5d9fnmGeDRB-115" value="" style="shape=tableRow;horizontal=0;startSize=0;swimlaneHead=0;swimlaneBody=0;fillColor=none;collapsible=0;dropTarget=0;points=[[0,0.5],[1,0.5]];portConstraint=eastwest;top=0;left=0;right=0;bottom=0;" parent="cShWyZy-k5d9fnmGeDRB-94" vertex="1">
          <mxGeometry y="90" width="176" height="30" as="geometry" />
        </mxCell>
        <mxCell id="cShWyZy-k5d9fnmGeDRB-116" value="" style="shape=partialRectangle;connectable=0;fillColor=none;top=0;left=0;bottom=0;right=0;editable=1;overflow=hidden;" parent="cShWyZy-k5d9fnmGeDRB-115" vertex="1">
          <mxGeometry width="30" height="30" as="geometry">
            <mxRectangle width="30" height="30" as="alternateBounds" />
          </mxGeometry>
        </mxCell>
        <mxCell id="cShWyZy-k5d9fnmGeDRB-117" value="isEigentor boolean" style="shape=partialRectangle;connectable=0;fillColor=none;top=0;left=0;bottom=0;right=0;align=left;spacingLeft=6;overflow=hidden;" parent="cShWyZy-k5d9fnmGeDRB-115" vertex="1">
          <mxGeometry x="30" width="146" height="30" as="geometry">
            <mxRectangle width="146" height="30" as="alternateBounds" />
          </mxGeometry>
        </mxCell>
        <mxCell id="cShWyZy-k5d9fnmGeDRB-187" value="" style="shape=tableRow;horizontal=0;startSize=0;swimlaneHead=0;swimlaneBody=0;fillColor=none;collapsible=0;dropTarget=0;points=[[0,0.5],[1,0.5]];portConstraint=eastwest;top=0;left=0;right=0;bottom=0;" parent="cShWyZy-k5d9fnmGeDRB-94" vertex="1">
          <mxGeometry y="120" width="176" height="30" as="geometry" />
        </mxCell>
        <mxCell id="cShWyZy-k5d9fnmGeDRB-188" value="FK" style="shape=partialRectangle;connectable=0;fillColor=none;top=0;left=0;bottom=0;right=0;editable=1;overflow=hidden;" parent="cShWyZy-k5d9fnmGeDRB-187" vertex="1">
          <mxGeometry width="30" height="30" as="geometry">
            <mxRectangle width="30" height="30" as="alternateBounds" />
          </mxGeometry>
        </mxCell>
        <mxCell id="cShWyZy-k5d9fnmGeDRB-189" value="idSpieler" style="shape=partialRectangle;connectable=0;fillColor=none;top=0;left=0;bottom=0;right=0;align=left;spacingLeft=6;overflow=hidden;" parent="cShWyZy-k5d9fnmGeDRB-187" vertex="1">
          <mxGeometry x="30" width="146" height="30" as="geometry">
            <mxRectangle width="146" height="30" as="alternateBounds" />
          </mxGeometry>
        </mxCell>
        <mxCell id="cShWyZy-k5d9fnmGeDRB-190" value="" style="shape=tableRow;horizontal=0;startSize=0;swimlaneHead=0;swimlaneBody=0;fillColor=none;collapsible=0;dropTarget=0;points=[[0,0.5],[1,0.5]];portConstraint=eastwest;top=0;left=0;right=0;bottom=0;" parent="cShWyZy-k5d9fnmGeDRB-94" vertex="1">
          <mxGeometry y="150" width="176" height="30" as="geometry" />
        </mxCell>
        <mxCell id="cShWyZy-k5d9fnmGeDRB-191" value="FK" style="shape=partialRectangle;connectable=0;fillColor=none;top=0;left=0;bottom=0;right=0;editable=1;overflow=hidden;" parent="cShWyZy-k5d9fnmGeDRB-190" vertex="1">
          <mxGeometry width="30" height="30" as="geometry">
            <mxRectangle width="30" height="30" as="alternateBounds" />
          </mxGeometry>
        </mxCell>
        <mxCell id="cShWyZy-k5d9fnmGeDRB-192" value="idSpiel" style="shape=partialRectangle;connectable=0;fillColor=none;top=0;left=0;bottom=0;right=0;align=left;spacingLeft=6;overflow=hidden;" parent="cShWyZy-k5d9fnmGeDRB-190" vertex="1">
          <mxGeometry x="30" width="146" height="30" as="geometry">
            <mxRectangle width="146" height="30" as="alternateBounds" />
          </mxGeometry>
        </mxCell>
        <mxCell id="cShWyZy-k5d9fnmGeDRB-164" value="Vertrag" style="shape=table;startSize=30;container=1;collapsible=1;childLayout=tableLayout;fixedRows=1;rowLines=0;fontStyle=1;align=center;resizeLast=1;" parent="1" vertex="1">
          <mxGeometry x="341" y="43" width="218" height="120" as="geometry" />
        </mxCell>
        <mxCell id="cShWyZy-k5d9fnmGeDRB-165" value="" style="shape=tableRow;horizontal=0;startSize=0;swimlaneHead=0;swimlaneBody=0;fillColor=none;collapsible=0;dropTarget=0;points=[[0,0.5],[1,0.5]];portConstraint=eastwest;top=0;left=0;right=0;bottom=0;" parent="cShWyZy-k5d9fnmGeDRB-164" vertex="1">
          <mxGeometry y="30" width="218" height="30" as="geometry" />
        </mxCell>
        <mxCell id="cShWyZy-k5d9fnmGeDRB-166" value="PK,FK1" style="shape=partialRectangle;connectable=0;fillColor=none;top=0;left=0;bottom=0;right=0;fontStyle=1;overflow=hidden;" parent="cShWyZy-k5d9fnmGeDRB-165" vertex="1">
          <mxGeometry width="60" height="30" as="geometry">
            <mxRectangle width="60" height="30" as="alternateBounds" />
          </mxGeometry>
        </mxCell>
        <mxCell id="cShWyZy-k5d9fnmGeDRB-167" value="idSpieler number" style="shape=partialRectangle;connectable=0;fillColor=none;top=0;left=0;bottom=0;right=0;align=left;spacingLeft=6;fontStyle=5;overflow=hidden;" parent="cShWyZy-k5d9fnmGeDRB-165" vertex="1">
          <mxGeometry x="60" width="158" height="30" as="geometry">
            <mxRectangle width="158" height="30" as="alternateBounds" />
          </mxGeometry>
        </mxCell>
        <mxCell id="cShWyZy-k5d9fnmGeDRB-168" value="" style="shape=tableRow;horizontal=0;startSize=0;swimlaneHead=0;swimlaneBody=0;fillColor=none;collapsible=0;dropTarget=0;points=[[0,0.5],[1,0.5]];portConstraint=eastwest;top=0;left=0;right=0;bottom=1;" parent="cShWyZy-k5d9fnmGeDRB-164" vertex="1">
          <mxGeometry y="60" width="218" height="30" as="geometry" />
        </mxCell>
        <mxCell id="cShWyZy-k5d9fnmGeDRB-169" value="PK,FK2" style="shape=partialRectangle;connectable=0;fillColor=none;top=0;left=0;bottom=0;right=0;fontStyle=1;overflow=hidden;" parent="cShWyZy-k5d9fnmGeDRB-168" vertex="1">
          <mxGeometry width="60" height="30" as="geometry">
            <mxRectangle width="60" height="30" as="alternateBounds" />
          </mxGeometry>
        </mxCell>
        <mxCell id="cShWyZy-k5d9fnmGeDRB-170" value="idMannschaft number" style="shape=partialRectangle;connectable=0;fillColor=none;top=0;left=0;bottom=0;right=0;align=left;spacingLeft=6;fontStyle=5;overflow=hidden;" parent="cShWyZy-k5d9fnmGeDRB-168" vertex="1">
          <mxGeometry x="60" width="158" height="30" as="geometry">
            <mxRectangle width="158" height="30" as="alternateBounds" />
          </mxGeometry>
        </mxCell>
        <mxCell id="cShWyZy-k5d9fnmGeDRB-171" value="" style="shape=tableRow;horizontal=0;startSize=0;swimlaneHead=0;swimlaneBody=0;fillColor=none;collapsible=0;dropTarget=0;points=[[0,0.5],[1,0.5]];portConstraint=eastwest;top=0;left=0;right=0;bottom=0;" parent="cShWyZy-k5d9fnmGeDRB-164" vertex="1">
          <mxGeometry y="90" width="218" height="30" as="geometry" />
        </mxCell>
        <mxCell id="cShWyZy-k5d9fnmGeDRB-172" value="" style="shape=partialRectangle;connectable=0;fillColor=none;top=0;left=0;bottom=0;right=0;editable=1;overflow=hidden;" parent="cShWyZy-k5d9fnmGeDRB-171" vertex="1">
          <mxGeometry width="60" height="30" as="geometry">
            <mxRectangle width="60" height="30" as="alternateBounds" />
          </mxGeometry>
        </mxCell>
        <mxCell id="cShWyZy-k5d9fnmGeDRB-173" value="Gehalt int" style="shape=partialRectangle;connectable=0;fillColor=none;top=0;left=0;bottom=0;right=0;align=left;spacingLeft=6;overflow=hidden;" parent="cShWyZy-k5d9fnmGeDRB-171" vertex="1">
          <mxGeometry x="60" width="158" height="30" as="geometry">
            <mxRectangle width="158" height="30" as="alternateBounds" />
          </mxGeometry>
        </mxCell>
        <mxCell id="cShWyZy-k5d9fnmGeDRB-206" value="" style="endArrow=none;html=1;rounded=0;exitX=1;exitY=0.5;exitDx=0;exitDy=0;entryX=0;entryY=0.5;entryDx=0;entryDy=0;" parent="1" source="cShWyZy-k5d9fnmGeDRB-85" target="cShWyZy-k5d9fnmGeDRB-44" edge="1">
          <mxGeometry relative="1" as="geometry">
            <mxPoint x="459" y="260" as="sourcePoint" />
            <mxPoint x="619" y="260" as="targetPoint" />
          </mxGeometry>
        </mxCell>
        <mxCell id="cShWyZy-k5d9fnmGeDRB-207" value="M" style="resizable=0;html=1;align=left;verticalAlign=bottom;" parent="cShWyZy-k5d9fnmGeDRB-206" connectable="0" vertex="1">
          <mxGeometry x="-1" relative="1" as="geometry" />
        </mxCell>
        <mxCell id="cShWyZy-k5d9fnmGeDRB-208" value="N" style="resizable=0;html=1;align=right;verticalAlign=bottom;" parent="cShWyZy-k5d9fnmGeDRB-206" connectable="0" vertex="1">
          <mxGeometry x="1" relative="1" as="geometry">
            <mxPoint x="-8" y="34" as="offset" />
          </mxGeometry>
        </mxCell>
        <mxCell id="cShWyZy-k5d9fnmGeDRB-209" value="" style="endArrow=none;html=1;rounded=0;exitX=1;exitY=0.5;exitDx=0;exitDy=0;entryX=0;entryY=0.5;entryDx=0;entryDy=0;" parent="1" source="cShWyZy-k5d9fnmGeDRB-88" target="cShWyZy-k5d9fnmGeDRB-44" edge="1">
          <mxGeometry relative="1" as="geometry">
            <mxPoint x="589.5" y="378" as="sourcePoint" />
            <mxPoint x="623" y="97" as="targetPoint" />
            <Array as="points">
              <mxPoint x="627" y="351" />
            </Array>
          </mxGeometry>
        </mxCell>
        <mxCell id="cShWyZy-k5d9fnmGeDRB-210" value="M" style="resizable=0;html=1;align=left;verticalAlign=bottom;" parent="cShWyZy-k5d9fnmGeDRB-209" connectable="0" vertex="1">
          <mxGeometry x="-1" relative="1" as="geometry">
            <mxPoint x="10" y="6" as="offset" />
          </mxGeometry>
        </mxCell>
        <mxCell id="cShWyZy-k5d9fnmGeDRB-211" value="N" style="resizable=0;html=1;align=right;verticalAlign=bottom;" parent="cShWyZy-k5d9fnmGeDRB-209" connectable="0" vertex="1">
          <mxGeometry x="1" relative="1" as="geometry">
            <mxPoint x="9" y="69" as="offset" />
          </mxGeometry>
        </mxCell>
        <mxCell id="cShWyZy-k5d9fnmGeDRB-212" value="" style="endArrow=none;html=1;rounded=0;entryX=0;entryY=0.5;entryDx=0;entryDy=0;exitX=1;exitY=0.5;exitDx=0;exitDy=0;" parent="1" edge="1">
          <mxGeometry relative="1" as="geometry">
            <mxPoint x="559" y="119" as="sourcePoint" />
            <mxPoint x="637" y="143" as="targetPoint" />
          </mxGeometry>
        </mxCell>
        <mxCell id="cShWyZy-k5d9fnmGeDRB-213" value="1" style="resizable=0;html=1;align=right;verticalAlign=bottom;" parent="cShWyZy-k5d9fnmGeDRB-212" connectable="0" vertex="1">
          <mxGeometry x="1" relative="1" as="geometry">
            <mxPoint x="-3" y="-1" as="offset" />
          </mxGeometry>
        </mxCell>
        <mxCell id="cShWyZy-k5d9fnmGeDRB-214" value="N" style="edgeLabel;html=1;align=center;verticalAlign=middle;resizable=0;points=[];" parent="cShWyZy-k5d9fnmGeDRB-212" vertex="1" connectable="0">
          <mxGeometry x="-0.716" relative="1" as="geometry">
            <mxPoint x="-2" y="-4" as="offset" />
          </mxGeometry>
        </mxCell>
        <mxCell id="cShWyZy-k5d9fnmGeDRB-215" value="" style="endArrow=none;html=1;rounded=0;exitX=1;exitY=0.5;exitDx=0;exitDy=0;entryX=0;entryY=0.5;entryDx=0;entryDy=0;" parent="1" source="cShWyZy-k5d9fnmGeDRB-6" target="cShWyZy-k5d9fnmGeDRB-165" edge="1">
          <mxGeometry relative="1" as="geometry">
            <mxPoint x="426" y="209" as="sourcePoint" />
            <mxPoint x="586" y="209" as="targetPoint" />
          </mxGeometry>
        </mxCell>
        <mxCell id="cShWyZy-k5d9fnmGeDRB-216" value="1" style="edgeLabel;html=1;align=center;verticalAlign=middle;resizable=0;points=[];" parent="cShWyZy-k5d9fnmGeDRB-215" vertex="1" connectable="0">
          <mxGeometry x="0.7321" relative="1" as="geometry">
            <mxPoint as="offset" />
          </mxGeometry>
        </mxCell>
        <mxCell id="cShWyZy-k5d9fnmGeDRB-217" value="1" style="edgeLabel;html=1;align=center;verticalAlign=middle;resizable=0;points=[];" parent="cShWyZy-k5d9fnmGeDRB-215" vertex="1" connectable="0">
          <mxGeometry x="-0.7735" y="1" relative="1" as="geometry">
            <mxPoint as="offset" />
          </mxGeometry>
        </mxCell>
        <mxCell id="cShWyZy-k5d9fnmGeDRB-218" value="" style="endArrow=none;html=1;rounded=0;entryX=1;entryY=0.5;entryDx=0;entryDy=0;exitX=1;exitY=0.5;exitDx=0;exitDy=0;" parent="1" source="cShWyZy-k5d9fnmGeDRB-63" target="cShWyZy-k5d9fnmGeDRB-184" edge="1">
          <mxGeometry relative="1" as="geometry">
            <mxPoint x="444" y="461" as="sourcePoint" />
            <mxPoint x="604" y="461" as="targetPoint" />
            <Array as="points">
              <mxPoint x="680" y="621" />
              <mxPoint x="677" y="458" />
            </Array>
          </mxGeometry>
        </mxCell>
        <mxCell id="cShWyZy-k5d9fnmGeDRB-219" value="n" style="edgeLabel;html=1;align=center;verticalAlign=middle;resizable=0;points=[];" parent="cShWyZy-k5d9fnmGeDRB-218" vertex="1" connectable="0">
          <mxGeometry x="0.9401" y="-1" relative="1" as="geometry">
            <mxPoint as="offset" />
          </mxGeometry>
        </mxCell>
        <mxCell id="cShWyZy-k5d9fnmGeDRB-220" value="1" style="edgeLabel;html=1;align=center;verticalAlign=middle;resizable=0;points=[];" parent="cShWyZy-k5d9fnmGeDRB-218" vertex="1" connectable="0">
          <mxGeometry x="-0.9518" y="2" relative="1" as="geometry">
            <mxPoint as="offset" />
          </mxGeometry>
        </mxCell>
        <mxCell id="cShWyZy-k5d9fnmGeDRB-221" value="" style="endArrow=none;html=1;rounded=0;entryX=0;entryY=0.5;entryDx=0;entryDy=0;exitX=0;exitY=0.5;exitDx=0;exitDy=0;" parent="1" source="cShWyZy-k5d9fnmGeDRB-6" target="cShWyZy-k5d9fnmGeDRB-187" edge="1">
          <mxGeometry relative="1" as="geometry">
            <mxPoint x="33" y="308" as="sourcePoint" />
            <mxPoint x="193" y="308" as="targetPoint" />
            <Array as="points">
              <mxPoint x="31" y="88" />
              <mxPoint x="35" y="416" />
            </Array>
          </mxGeometry>
        </mxCell>
        <mxCell id="XDfvozZso53a5jMxlVdh-4" value="1" style="edgeLabel;html=1;align=center;verticalAlign=middle;resizable=0;points=[];" vertex="1" connectable="0" parent="cShWyZy-k5d9fnmGeDRB-221">
          <mxGeometry x="-0.9445" y="-1" relative="1" as="geometry">
            <mxPoint as="offset" />
          </mxGeometry>
        </mxCell>
        <mxCell id="XDfvozZso53a5jMxlVdh-5" value="n" style="edgeLabel;html=1;align=center;verticalAlign=middle;resizable=0;points=[];" vertex="1" connectable="0" parent="cShWyZy-k5d9fnmGeDRB-221">
          <mxGeometry x="0.9266" relative="1" as="geometry">
            <mxPoint as="offset" />
          </mxGeometry>
        </mxCell>
        <mxCell id="XDfvozZso53a5jMxlVdh-1" value="" style="endArrow=none;html=1;rounded=0;exitX=1;exitY=0.5;exitDx=0;exitDy=0;entryX=0;entryY=0.5;entryDx=0;entryDy=0;" edge="1" parent="1" source="cShWyZy-k5d9fnmGeDRB-190" target="cShWyZy-k5d9fnmGeDRB-82">
          <mxGeometry relative="1" as="geometry">
            <mxPoint x="333" y="368" as="sourcePoint" />
            <mxPoint x="493" y="368" as="targetPoint" />
          </mxGeometry>
        </mxCell>
        <mxCell id="XDfvozZso53a5jMxlVdh-2" value="n" style="edgeLabel;html=1;align=center;verticalAlign=middle;resizable=0;points=[];" vertex="1" connectable="0" parent="XDfvozZso53a5jMxlVdh-1">
          <mxGeometry x="-0.6387" y="-1" relative="1" as="geometry">
            <mxPoint as="offset" />
          </mxGeometry>
        </mxCell>
        <mxCell id="XDfvozZso53a5jMxlVdh-3" value="1" style="edgeLabel;html=1;align=center;verticalAlign=middle;resizable=0;points=[];" vertex="1" connectable="0" parent="XDfvozZso53a5jMxlVdh-1">
          <mxGeometry x="0.6427" relative="1" as="geometry">
            <mxPoint as="offset" />
          </mxGeometry>
        </mxCell>
      </root>
    </mxGraphModel>
  </diagram>
</mxfile>
